<svg width="28" height="23" viewBox="0 0 28 23" fill="none" xmlns="http://www.w3.org/2000/svg">
    <path class="bar1" d="M20 2C20 0.89543 20.8954 0 22 0H26C27.1046 0 28 0.895431 28 2V21.76C28 22.4448 27.4448 23 26.76 23H21.24C20.5552 23 20 22.4448 20 21.76V2Z" fill="#81FF8D"/>
    <path class="bar2" d="M10 11C10 9.89543 10.8954 9 12 9H16C17.1046 9 18 9.89543 18 11V21.76C18 22.4448 17.4448 23 16.76 23H11.24C10.5552 23 10 22.4448 10 21.76V11Z" fill="#81FF8D"/>
    <path class="bar3" d="M0 19C0 17.8954 0.895431 17 2 17H6C7.10457 17 8 17.8954 8 19V21.76C8 22.4448 7.44483 23 6.76 23H1.24C0.555167 23 0 22.4448 0 21.76V19Z" fill="#81FF8D"/>
</svg>