<svg class="icon" viewBox="0 0 34 30" fill="none" xmlns="http://www.w3.org/2000/svg">
    <path d="M24.548 0C21.471 0 18.717 1.48315 17 3.75843C16.123 2.59351 14.9842 1.64729 13.674 0.994878C12.3638 0.342468 10.9182 0.00182958 9.452 0C4.233 0 0 4.21348 0 9.42135C0 11.427 0.323 13.2809 0.884 15C3.57 23.427 11.849 28.4663 15.946 29.8483C16.524 30.0506 17.476 30.0506 18.054 29.8483C22.151 28.4663 30.43 23.427 33.116 15C33.677 13.2809 34 11.427 34 9.42135C34 4.21348 29.767 0 24.548 0Z" fill="#FF6060"/>
</svg>