<svg class="icon" viewBox="0 0 44 47" fill="none" xmlns="http://www.w3.org/2000/svg">
    <path d="M21.956 14.605C20.2715 14.605 18.6247 15.1009 17.2241 16.0301C15.8234 16.9592 14.7317 18.2797 14.0871 19.8248C13.4424 21.3698 13.2737 23.07 13.6024 24.7102C13.931 26.3504 14.7422 27.857 15.9334 29.0396C17.1246 30.2221 18.6422 31.0274 20.2944 31.3537C21.9466 31.6799 23.6591 31.5125 25.2155 30.8725C26.7718 30.2325 28.102 29.1487 29.0379 27.7582C29.9738 26.3677 30.4734 24.7329 30.4734 23.0606C30.4708 20.8188 29.5726 18.6696 27.9759 17.0844C26.3791 15.4992 24.2142 14.6076 21.956 14.605ZM21.956 28.4414C20.884 28.4414 19.8361 28.1258 18.9448 27.5346C18.0535 26.9433 17.3587 26.1029 16.9485 25.1197C16.5383 24.1365 16.4309 23.0546 16.6401 22.0108C16.8492 20.9671 17.3654 20.0083 18.1234 19.2558C18.8815 18.5033 19.8472 17.9908 20.8986 17.7832C21.95 17.5756 23.0398 17.6821 24.0302 18.0894C25.0206 18.4966 25.8671 19.1863 26.4627 20.0712C27.0583 20.956 27.3761 21.9964 27.3761 23.0606C27.3745 24.4872 26.803 25.8549 25.7869 26.8636C24.7707 27.8724 23.393 28.4398 21.956 28.4414Z" fill="white"/>
    <path d="M43.2057 29.4329L40.1307 26.92C40.6758 24.3755 40.6758 21.7457 40.1307 19.2012L43.2057 16.6883C43.5603 16.3998 43.7999 15.9954 43.8816 15.5475C43.9633 15.0997 43.8817 14.6376 43.6515 14.2439L40.495 8.81674C40.2668 8.42185 39.9045 8.12055 39.4728 7.96684C39.0412 7.81313 38.5685 7.81705 38.1395 7.97791L34.4073 9.36606C32.463 7.62218 30.1693 6.3061 27.6767 5.50418L27.0218 1.60589C26.9477 1.15662 26.7148 0.748256 26.3649 0.453983C26.015 0.159709 25.5709 -0.00123151 25.1124 7.09626e-06H18.7997C18.3411 -0.00121575 17.8971 0.159718 17.5472 0.453969C17.1973 0.74822 16.9644 1.15655 16.8903 1.60579L16.2358 5.50418C13.7431 6.30608 11.4494 7.62216 9.50516 9.36606L5.77255 7.97772C5.34358 7.81697 4.87097 7.81311 4.43939 7.96683C4.00782 8.12056 3.64549 8.42182 3.41732 8.81664L0.260974 14.2442C0.0307752 14.6379 -0.0507458 15.1 0.0310113 15.5479C0.112768 15.9957 0.352463 16.4001 0.707165 16.6885L3.78182 19.2012C3.23671 21.7457 3.23671 24.3755 3.78182 26.92L0.706874 29.4329C0.352229 29.7214 0.1126 30.1257 0.0308977 30.5736C-0.0508045 31.0215 0.0307557 31.4836 0.260974 31.8772L3.41741 37.3044C3.64561 37.6993 4.008 38.0006 4.43964 38.1543C4.87127 38.308 5.34394 38.3041 5.77293 38.1433L9.50526 36.7551C11.4495 38.499 13.7432 39.8151 16.2359 40.617L16.8904 44.5153C16.9645 44.9645 17.1974 45.3729 17.5473 45.6671C17.8971 45.9614 18.3411 46.1224 18.7997 46.1212H25.1124C25.5709 46.1224 26.0149 45.9615 26.3648 45.6672C26.7147 45.373 26.9476 44.9646 27.0218 44.5154L27.6764 40.617C30.169 39.8151 32.4627 38.499 34.407 36.7551L38.1395 38.1435C38.5685 38.3042 39.0411 38.308 39.4726 38.1543C39.9042 38.0006 40.2665 37.6993 40.4947 37.3045L43.6509 31.8769C43.8812 31.4834 43.9628 31.0214 43.8812 30.5736C43.7997 30.1258 43.5602 29.7214 43.2057 29.4329ZM38.3047 34.9213L33.6484 33.1895L32.9433 33.8942C31.0033 35.8353 28.5768 37.2275 25.9141 37.9272L24.9462 38.1804L24.1288 43.0464H19.784L18.9669 38.1804L17.9991 37.9272C15.3363 37.2275 12.9098 35.8353 10.9699 33.8942L10.2648 33.1895L5.60762 34.9213L3.43561 31.1858L7.27121 28.0511L7.00988 27.0928C6.29121 24.452 6.29121 21.6692 7.00988 19.0283L7.27121 18.0702L3.43561 14.9355L5.60811 11.1999L10.2645 12.9317L10.9696 12.227C12.9095 10.2859 15.336 8.89364 17.9988 8.19401L18.9666 7.94072L19.7836 3.07475H24.1288L24.9459 7.94072L25.9138 8.19401C28.5765 8.89364 31.003 10.2859 32.943 12.227L33.6481 12.9317L38.3044 11.1999L40.477 14.9354L36.6414 18.0702L36.9028 19.0283C37.6214 21.6692 37.6214 24.452 36.9028 27.0928L36.6414 28.0511L40.477 31.1857L38.3047 34.9213Z" fill="white"/>
</svg>