<svg class="flag" viewBox="0 0 47 32" fill="none" xmlns="http://www.w3.org/2000/svg">
    <g clip-path="url(#clip0_125_15)">
        <rect width="47" height="32" rx="2" fill="white"/>
        <rect x="21" y="4" width="26" height="4" fill="#FF7171"/>
        <rect x="21" y="12" width="26" height="4" fill="#FF7171"/>
        <path d="M0 0H21V16H0V0Z" fill="#7896FF"/>
        <rect y="20" width="47" height="4" fill="#FF7171"/>
        <rect y="28" width="47" height="4" fill="#FF7171"/>
        <path d="M3.90489 1.2927C3.93483 1.20057 4.06517 1.20057 4.09511 1.29271L4.42658 2.31287C4.43996 2.35407 4.47836 2.38197 4.52168 2.38197H5.59435C5.69122 2.38197 5.73149 2.50593 5.65312 2.56287L4.78532 3.19336C4.75027 3.21883 4.73561 3.26396 4.74899 3.30517L5.08046 4.32533C5.1104 4.41746 5.00495 4.49407 4.92658 4.43713L4.05878 3.80664C4.02373 3.78117 3.97627 3.78117 3.94122 3.80664L3.07342 4.43713C2.99505 4.49407 2.8896 4.41746 2.91954 4.32533L3.25101 3.30517C3.26439 3.26396 3.24973 3.21883 3.21468 3.19336L2.34688 2.56287C2.26851 2.50593 2.30878 2.38197 2.40566 2.38197H3.47832C3.52164 2.38197 3.56004 2.35407 3.57342 2.31287L3.90489 1.2927Z" fill="white"/>
        <path d="M10.9049 1.2927C10.9348 1.20057 11.0652 1.20057 11.0951 1.29271L11.4266 2.31287C11.44 2.35407 11.4784 2.38197 11.5217 2.38197H12.5943C12.6912 2.38197 12.7315 2.50593 12.6531 2.56287L11.7853 3.19336C11.7503 3.21883 11.7356 3.26396 11.749 3.30517L12.0805 4.32533C12.1104 4.41746 12.005 4.49407 11.9266 4.43713L11.0588 3.80664C11.0237 3.78117 10.9763 3.78117 10.9412 3.80664L10.0734 4.43713C9.99505 4.49407 9.8896 4.41746 9.91954 4.32533L10.251 3.30517C10.2644 3.26396 10.2497 3.21883 10.2147 3.19336L9.34688 2.56287C9.26851 2.50593 9.30878 2.38197 9.40566 2.38197H10.4783C10.5216 2.38197 10.56 2.35407 10.5734 2.31287L10.9049 1.2927Z" fill="white"/>
        <path d="M17.9049 1.2927C17.9348 1.20057 18.0652 1.20057 18.0951 1.29271L18.4266 2.31287C18.44 2.35407 18.4784 2.38197 18.5217 2.38197H19.5943C19.6912 2.38197 19.7315 2.50593 19.6531 2.56287L18.7853 3.19336C18.7503 3.21883 18.7356 3.26396 18.749 3.30517L19.0805 4.32533C19.1104 4.41746 19.005 4.49407 18.9266 4.43713L18.0588 3.80664C18.0237 3.78117 17.9763 3.78117 17.9412 3.80664L17.0734 4.43713C16.995 4.49407 16.8896 4.41746 16.9195 4.32533L17.251 3.30517C17.2644 3.26396 17.2497 3.21883 17.2147 3.19336L16.3469 2.56287C16.2685 2.50593 16.3088 2.38197 16.4057 2.38197H17.4783C17.5216 2.38197 17.56 2.35407 17.5734 2.31287L17.9049 1.2927Z" fill="white"/>
        <path d="M3.90489 6.2927C3.93483 6.20057 4.06517 6.20057 4.09511 6.29271L4.42658 7.31287C4.43996 7.35407 4.47836 7.38197 4.52168 7.38197H5.59435C5.69122 7.38197 5.73149 7.50593 5.65312 7.56287L4.78532 8.19336C4.75027 8.21883 4.73561 8.26396 4.74899 8.30517L5.08046 9.32533C5.1104 9.41746 5.00495 9.49407 4.92658 9.43713L4.05878 8.80664C4.02373 8.78117 3.97627 8.78117 3.94122 8.80664L3.07342 9.43713C2.99505 9.49407 2.8896 9.41746 2.91954 9.32533L3.25101 8.30517C3.26439 8.26396 3.24973 8.21883 3.21468 8.19336L2.34688 7.56287C2.26851 7.50593 2.30878 7.38197 2.40566 7.38197H3.47832C3.52164 7.38197 3.56004 7.35407 3.57342 7.31287L3.90489 6.2927Z" fill="white"/>
        <path d="M10.9049 6.2927C10.9348 6.20057 11.0652 6.20057 11.0951 6.29271L11.4266 7.31287C11.44 7.35407 11.4784 7.38197 11.5217 7.38197H12.5943C12.6912 7.38197 12.7315 7.50593 12.6531 7.56287L11.7853 8.19336C11.7503 8.21883 11.7356 8.26396 11.749 8.30517L12.0805 9.32533C12.1104 9.41746 12.005 9.49407 11.9266 9.43713L11.0588 8.80664C11.0237 8.78117 10.9763 8.78117 10.9412 8.80664L10.0734 9.43713C9.99505 9.49407 9.8896 9.41746 9.91954 9.32533L10.251 8.30517C10.2644 8.26396 10.2497 8.21883 10.2147 8.19336L9.34688 7.56287C9.26851 7.50593 9.30878 7.38197 9.40566 7.38197H10.4783C10.5216 7.38197 10.56 7.35407 10.5734 7.31287L10.9049 6.2927Z" fill="white"/>
        <path d="M17.9049 6.2927C17.9348 6.20057 18.0652 6.20057 18.0951 6.29271L18.4266 7.31287C18.44 7.35407 18.4784 7.38197 18.5217 7.38197H19.5943C19.6912 7.38197 19.7315 7.50593 19.6531 7.56287L18.7853 8.19336C18.7503 8.21883 18.7356 8.26396 18.749 8.30517L19.0805 9.32533C19.1104 9.41746 19.005 9.49407 18.9266 9.43713L18.0588 8.80664C18.0237 8.78117 17.9763 8.78117 17.9412 8.80664L17.0734 9.43713C16.995 9.49407 16.8896 9.41746 16.9195 9.32533L17.251 8.30517C17.2644 8.26396 17.2497 8.21883 17.2147 8.19336L16.3469 7.56287C16.2685 7.50593 16.3088 7.38197 16.4057 7.38197H17.4783C17.5216 7.38197 17.56 7.35407 17.5734 7.31287L17.9049 6.2927Z" fill="white"/>
        <path d="M3.90489 11.2927C3.93483 11.2006 4.06517 11.2006 4.09511 11.2927L4.42658 12.3129C4.43996 12.3541 4.47836 12.382 4.52168 12.382H5.59435C5.69122 12.382 5.73149 12.5059 5.65312 12.5629L4.78532 13.1934C4.75027 13.2188 4.73561 13.264 4.74899 13.3052L5.08046 14.3253C5.1104 14.4175 5.00495 14.4941 4.92658 14.4371L4.05878 13.8066C4.02373 13.7812 3.97627 13.7812 3.94122 13.8066L3.07342 14.4371C2.99505 14.4941 2.8896 14.4175 2.91954 14.3253L3.25101 13.3052C3.26439 13.264 3.24973 13.2188 3.21468 13.1934L2.34688 12.5629C2.26851 12.5059 2.30878 12.382 2.40566 12.382H3.47832C3.52164 12.382 3.56004 12.3541 3.57342 12.3129L3.90489 11.2927Z" fill="white"/>
        <path d="M10.9049 11.2927C10.9348 11.2006 11.0652 11.2006 11.0951 11.2927L11.4266 12.3129C11.44 12.3541 11.4784 12.382 11.5217 12.382H12.5943C12.6912 12.382 12.7315 12.5059 12.6531 12.5629L11.7853 13.1934C11.7503 13.2188 11.7356 13.264 11.749 13.3052L12.0805 14.3253C12.1104 14.4175 12.005 14.4941 11.9266 14.4371L11.0588 13.8066C11.0237 13.7812 10.9763 13.7812 10.9412 13.8066L10.0734 14.4371C9.99505 14.4941 9.8896 14.4175 9.91954 14.3253L10.251 13.3052C10.2644 13.264 10.2497 13.2188 10.2147 13.1934L9.34688 12.5629C9.26851 12.5059 9.30878 12.382 9.40566 12.382H10.4783C10.5216 12.382 10.56 12.3541 10.5734 12.3129L10.9049 11.2927Z" fill="white"/>
        <path d="M17.9049 11.2927C17.9348 11.2006 18.0652 11.2006 18.0951 11.2927L18.4266 12.3129C18.44 12.3541 18.4784 12.382 18.5217 12.382H19.5943C19.6912 12.382 19.7315 12.5059 19.6531 12.5629L18.7853 13.1934C18.7503 13.2188 18.7356 13.264 18.749 13.3052L19.0805 14.3253C19.1104 14.4175 19.005 14.4941 18.9266 14.4371L18.0588 13.8066C18.0237 13.7812 17.9763 13.7812 17.9412 13.8066L17.0734 14.4371C16.995 14.4941 16.8896 14.4175 16.9195 14.3253L17.251 13.3052C17.2644 13.264 17.2497 13.2188 17.2147 13.1934L16.3469 12.5629C16.2685 12.5059 16.3088 12.382 16.4057 12.382H17.4783C17.5216 12.382 17.56 12.3541 17.5734 12.3129L17.9049 11.2927Z" fill="white"/>
    </g>
    <defs>
        <clipPath id="clip0_125_15">
        <rect width="47" height="32" rx="2" fill="white"/>
        </clipPath>
    </defs>
</svg>